<?xml version="1.0" standalone="no"?>
<!DOCTYPE svg PUBLIC "-//W3C//DTD SVG 20010904//EN"
 "http://www.w3.org/TR/2001/REC-SVG-20010904/DTD/svg10.dtd">
<svg version="1.0" xmlns="http://www.w3.org/2000/svg"
 width="7088.000000pt" height="4725.000000pt" viewBox="0 0 7088.000000 4725.000000"
 preserveAspectRatio="xMidYMid meet">

<g transform="translate(0.000000,4725.000000) scale(0.100000,-0.100000)"
fill="#000000" stroke="none">
<path d="M47338 34622 l-918 -1307 0 -3195 c0 -1757 -3 -3259 -7 -3337 l-6
-143 -101 -59 c-156 -91 -259 -172 -412 -325 -213 -212 -373 -444 -518 -747
-85 -179 -180 -419 -170 -429 11 -9 72 -30 89 -30 7 0 38 66 71 148 118 299
296 619 447 807 131 162 313 325 497 444 l95 62 3 -31 3 -30 1152 0 1152 0 65
22 c60 20 93 22 435 28 307 6 385 10 460 26 l90 19 -195 5 -195 5 -255 87
c-438 150 -740 227 -1056 269 -461 61 -1002 -2 -1421 -167 -61 -24 -114 -44
-117 -44 -3 0 -6 1480 -6 3289 l0 3289 868 1236 c477 679 871 1234 876 1232 6
-1 400 -558 878 -1237 l868 -1234 0 -3322 c0 -1828 2 -3323 4 -3323 2 0 24 9
50 20 l46 21 0 3314 0 3315 1436 0 c838 0 1434 4 1432 9 -1 5 -403 579 -893
1275 l-890 1266 -1436 0 -1436 0 -27 40 c-14 22 -30 40 -34 40 -4 -1 -420
-589 -924 -1308z m558 -7812 c260 -21 570 -85 914 -189 91 -27 176 -54 190
-60 17 -7 -373 -10 -1227 -10 -717 -1 -1253 3 -1253 8 0 12 154 77 290 121
341 111 733 158 1086 130z"/>
<path d="M31323 34174 c-343 -41 -700 -170 -978 -351 -627 -410 -1092 -1176
-1389 -2286 -125 -463 -252 -782 -450 -1125 -236 -410 -471 -706 -1066 -1342
-348 -372 -530 -589 -679 -810 -452 -672 -544 -1364 -296 -2225 24 -82 54
-178 67 -212 l23 -62 120 90 c66 50 188 136 270 192 564 381 1083 605 1535
663 85 11 176 32 285 66 225 69 815 224 815 213 0 -1 -24 -53 -54 -116 -269
-566 -365 -1436 -281 -2522 18 -229 30 -288 79 -384 77 -153 226 -316 612
-670 342 -313 434 -421 434 -508 0 -50 -53 -158 -160 -325 -286 -448 -369
-652 -341 -842 38 -257 381 -1648 637 -2578 282 -1023 797 -2731 832 -2758 24
-18 67 -15 87 8 27 30 18 72 -109 478 -424 1356 -814 2748 -1090 3887 -197
813 -220 923 -220 1030 0 88 4 110 32 184 43 115 122 261 247 457 229 359 258
449 191 583 -56 109 -167 227 -501 532 -331 302 -473 460 -541 604 -30 64 -35
85 -48 240 -53 593 -45 1209 20 1655 92 634 296 1096 606 1377 80 73 165 128
276 179 53 25 108 51 122 58 13 6 31 24 40 38 13 25 13 29 -8 57 l-22 30 0
828 c0 510 4 844 10 871 14 61 55 117 111 153 31 21 46 36 42 46 -4 10 -13 12
-32 7 -188 -50 -346 -18 -513 106 -112 84 -214 240 -264 405 -24 80 -27 107
-28 235 0 169 12 228 77 360 103 210 319 338 531 315 133 -14 283 -91 381
-196 l48 -52 71 23 c166 53 419 170 636 295 677 389 1309 995 1579 1513 49 96
42 94 159 29 352 -199 624 -581 703 -989 22 -117 25 -317 8 -539 l-12 -146
-81 43 c-130 69 -215 89 -381 88 -166 0 -237 -15 -370 -79 -138 -66 -220 -155
-250 -270 -16 -63 -12 -125 30 -495 28 -248 36 -370 25 -411 -23 -86 -115
-146 -240 -156 -81 -7 -110 -25 -110 -68 0 -58 56 -77 166 -56 172 33 288 132
312 267 10 61 2 199 -33 519 -14 127 -28 255 -31 285 -16 156 120 281 354 326
198 38 401 -4 544 -113 l48 -37 0 -311 c0 -170 5 -419 12 -552 37 -747 -121
-1303 -477 -1672 -208 -216 -442 -344 -737 -403 -162 -32 -455 -32 -608 1
-409 87 -754 318 -1035 693 -43 57 -80 105 -82 108 -12 13 36 -99 97 -225 283
-590 801 -986 1470 -1124 134 -28 302 -49 465 -57 l139 -7 175 -78 c902 -405
1759 -1214 2450 -2313 82 -130 206 -347 267 -466 l49 -95 -1 -115 c0 -136 -9
-179 -114 -595 -90 -352 -110 -460 -110 -596 0 -193 41 -258 375 -599 305
-311 368 -394 434 -577 45 -123 55 -210 48 -417 -49 -1362 -556 -3222 -1302
-4776 -130 -271 -134 -280 -111 -314 12 -20 25 -26 51 -26 44 0 55 16 156 227
773 1611 1261 3374 1339 4838 15 281 -7 425 -90 602 -72 154 -149 252 -401
508 -331 337 -357 374 -366 504 -7 103 23 274 98 558 101 380 119 472 126 623
7 170 -3 207 -100 385 -287 527 -633 1019 -1027 1460 -131 147 -457 467 -599
588 -63 54 -169 139 -235 189 -67 50 -125 95 -131 100 -16 15 306 -98 468
-163 260 -105 588 -263 719 -346 21 -12 39 -23 40 -23 2 0 3 143 3 317 1 426
27 619 150 1097 36 138 92 355 124 481 33 127 72 302 87 390 26 147 28 180 28
410 0 225 -3 264 -27 395 -67 372 -175 634 -468 1135 -322 552 -401 739 -489
1165 -154 750 -455 1297 -883 1603 -245 176 -536 267 -850 267 l-75 0 -43 58
c-61 81 -182 197 -276 265 -205 146 -459 241 -743 276 -115 15 -440 12 -577
-5z"/>
<path d="M12993 32645 l-923 -1314 0 -2440 0 -2441 491 0 491 0 -59 50 -58 50
-377 0 -378 0 0 2379 0 2379 868 1236 c477 679 870 1235 873 1236 4 0 399
-558 878 -1240 l871 -1239 0 -2375 0 -2375 -157 -3 -158 -3 90 -18 c50 -10
143 -21 208 -24 l117 -6 0 2411 0 2412 1441 0 c799 0 1439 4 1437 9 -1 4 -405
580 -897 1280 l-894 1271 -1437 0 -1437 0 -27 40 c-14 22 -30 40 -34 40 -4 -1
-422 -592 -929 -1315z"/>
<path d="M46957 32393 c-4 -3 -7 -242 -7 -530 l0 -523 460 0 460 0 0 530 0
530 -453 0 c-250 0 -457 -3 -460 -7z m813 -528 l0 -425 -355 0 -355 0 0 425 0
425 355 0 355 0 0 -425z"/>
<path d="M47990 31870 l0 -530 790 0 790 0 0 530 0 530 -790 0 -790 0 0 -530z
m1480 -5 l0 -425 -690 0 -690 0 0 425 0 425 690 0 690 0 0 -425z"/>
<path d="M31750 31033 c-218 -42 -396 -128 -516 -247 -65 -66 -76 -97 -43
-132 36 -38 60 -31 132 39 98 94 204 152 358 194 49 14 102 18 224 18 149 0
165 -2 240 -28 44 -16 101 -42 126 -58 74 -47 132 -33 132 31 0 41 -21 60
-128 111 -124 59 -180 71 -350 75 -82 1 -161 0 -175 -3z"/>
<path d="M33373 30765 c-69 -19 -118 -44 -182 -95 -66 -52 -141 -153 -141
-190 0 -33 28 -60 61 -60 32 0 49 14 87 71 31 46 84 94 129 118 22 11 22 10
13 -14 -38 -100 20 -241 110 -265 125 -34 233 129 176 265 -8 19 -13 35 -10
35 16 0 84 -35 125 -65 56 -40 90 -44 119 -15 30 30 24 59 -18 99 -108 103
-322 155 -469 116z"/>
<path d="M31783 30736 c-64 -16 -138 -53 -194 -98 -52 -42 -139 -156 -139
-183 0 -37 28 -65 64 -65 30 0 39 8 81 64 40 55 141 143 152 132 2 -2 -1 -15
-7 -30 -38 -101 26 -240 120 -261 67 -15 147 43 171 123 11 39 8 116 -6 160
l-8 23 38 -15 c21 -9 60 -32 86 -51 58 -41 100 -46 123 -13 25 35 19 58 -22
97 -106 101 -311 153 -459 117z"/>
<path d="M12610 29895 l0 -525 460 0 460 0 0 525 0 525 -460 0 -460 0 0 -525z
m810 0 l0 -425 -355 0 -355 0 0 425 0 425 355 0 355 0 0 -425z"/>
<path d="M13650 29895 l0 -525 790 0 790 0 0 525 0 525 -790 0 -790 0 0 -525z
m1480 0 l0 -425 -690 0 -690 0 0 425 0 425 690 0 690 0 0 -425z"/>
<path d="M46950 29895 l0 -525 460 0 460 0 0 525 0 525 -460 0 -460 0 0 -525z
m810 0 l0 -425 -350 0 -350 0 0 425 0 425 350 0 350 0 0 -425z"/>
<path d="M47990 29895 l0 -525 790 0 790 0 0 525 0 525 -790 0 -790 0 0 -525z
m1480 0 l0 -425 -690 0 -690 0 0 425 0 425 690 0 690 0 0 -425z"/>
<path d="M31850 29280 c-11 -11 -20 -28 -20 -38 0 -31 54 -104 128 -174 86
-81 233 -157 357 -184 168 -38 369 -16 525 57 150 70 190 112 156 164 -20 31
-66 33 -104 6 -192 -135 -477 -159 -696 -57 -75 34 -170 110 -212 169 -21 29
-44 58 -53 65 -22 18 -58 15 -81 -8z"/>
<path d="M12610 27925 l0 -525 460 0 460 0 0 525 0 525 -460 0 -460 0 0 -525z
m820 0 l0 -425 -355 0 -355 0 0 425 0 425 355 0 355 0 0 -425z"/>
<path d="M13650 27930 c0 -286 -1 -522 -2 -525 -2 -2 354 -6 790 -8 l792 -4 0
528 0 529 -790 0 -790 0 0 -520z m1480 -5 l0 -425 -690 0 -690 0 0 425 0 425
690 0 690 0 0 -425z"/>
<path d="M46950 27925 l0 -525 460 0 460 0 0 525 0 525 -460 0 -460 0 0 -525z
m820 0 l0 -425 -355 0 -355 0 0 425 0 425 355 0 355 0 0 -425z"/>
<path d="M47990 27920 l0 -530 790 0 790 0 0 530 0 530 -790 0 -790 0 0 -530z
m1480 5 l0 -425 -690 0 -690 0 0 425 0 425 690 0 690 0 0 -425z"/>
<path d="M13560 26900 c-45 -45 -21 -76 215 -275 523 -440 1251 -859 1917
-1101 81 -30 156 -54 166 -54 41 0 66 58 40 92 -7 9 -74 39 -148 66 -525 191
-1129 513 -1595 851 -128 92 -355 276 -454 365 -46 42 -92 76 -102 76 -11 0
-28 -9 -39 -20z"/>
<path d="M51453 26870 c-209 -179 -262 -223 -386 -316 -360 -272 -800 -536
-1211 -726 -173 -81 -437 -188 -559 -228 -78 -25 -99 -51 -79 -95 19 -41 48
-40 182 8 734 259 1592 769 2113 1257 75 69 86 105 45 134 -33 23 -41 21 -105
-34z"/>
<path d="M18660 26596 c0 -55 3 -66 19 -71 30 -9 174 -99 254 -158 350 -259
605 -621 822 -1167 32 -80 59 -147 61 -149 7 -8 96 23 101 34 7 20 -111 304
-203 485 -220 437 -472 734 -819 963 -79 52 -215 127 -230 127 -3 0 -5 -29 -5
-64z"/>
<path d="M13382 26233 c-18 -7 -34 -51 -27 -74 10 -29 302 -223 565 -374 291
-167 863 -435 933 -437 51 -2 77 61 40 95 -10 8 -47 26 -83 40 -346 131 -889
420 -1256 668 -127 86 -143 94 -172 82z"/>
<path d="M51548 26138 c-396 -262 -777 -466 -1173 -629 -106 -43 -144 -64
-155 -83 -17 -28 -9 -49 26 -72 22 -15 53 -5 247 76 306 130 711 345 1008 536
221 142 269 179 269 209 0 27 -32 65 -54 65 -8 0 -84 -46 -168 -102z"/>
<path d="M20407 24452 c-10 -10 -17 -33 -17 -50 0 -18 240 -650 561 -1475
1663 -4276 2385 -6174 2819 -7417 89 -254 108 -288 159 -275 38 9 61 34 61 65
0 43 -309 903 -710 1975 -255 683 -752 1987 -780 2050 -10 22 -129 328 -265
680 -646 1677 -1720 4432 -1733 4448 -20 23 -74 22 -95 -1z"/>
<path d="M44627 24458 c-20 -16 -1760 -4486 -2254 -5793 -25 -66 -54 -140 -65
-164 -79 -175 -842 -2230 -1094 -2944 -95 -271 -97 -288 -41 -315 33 -16 81
-2 92 26 4 10 53 148 110 307 501 1410 1117 3033 2670 7025 377 971 686 1780
687 1797 2 59 -60 95 -105 61z"/>
<path d="M38454 20004 c-17 -8 -44 -28 -59 -44 l-28 -29 16 -153 c34 -312 41
-451 41 -873 0 -523 -21 -893 -95 -1690 -79 -851 -90 -980 -87 -1011 2 -25 65
-112 288 -396 563 -717 1310 -1643 1847 -2290 155 -187 182 -215 187 -195 9
36 7 353 -4 477 -24 260 -96 599 -190 895 -76 236 -189 523 -415 1050 -242
567 -324 775 -408 1050 -129 417 -227 786 -427 1612 -225 925 -300 1186 -405
1398 -61 124 -99 175 -149 199 -42 20 -72 20 -112 0z"/>
<path d="M27863 19142 c-607 -1219 -1271 -2418 -2031 -3666 l-163 -269 -2
-2471 c-2 -1814 1 -2568 11 -2836 6 -201 15 -386 18 -413 l6 -47 496 2 496 3
17 85 c94 461 215 1322 289 2065 105 1058 146 1871 134 2675 -4 300 -3 500 5
615 49 714 198 1442 486 2366 35 113 163 502 284 865 300 898 353 1100 355
1334 0 109 -2 131 -22 175 -21 46 -68 106 -81 104 -3 0 -137 -265 -298 -587z"/>
<path d="M47496 12582 c-3 -4 -25 -69 -49 -143 -25 -74 -406 -1221 -847 -2549
-441 -1328 -1008 -3036 -1260 -3795 -252 -759 -470 -1417 -485 -1462 -15 -46
-29 -83 -32 -83 -6 0 -82 54 -3173 2238 -393 278 -743 526 -777 550 l-63 44 0
-180 0 -180 248 -175 c136 -96 1041 -735 2011 -1421 l1763 -1246 6219 0 6219
0 0 183 0 182 1331 4010 c733 2206 1334 4016 1336 4023 4 9 -1243 12 -6215 12
-3422 0 -6223 -4 -6226 -8z m5146 -3463 c122 -26 225 -104 281 -214 27 -52 31
-73 35 -159 3 -59 -1 -122 -8 -155 -57 -258 -307 -504 -578 -567 -47 -11 -98
-15 -168 -12 -86 4 -110 9 -167 35 -83 40 -146 97 -185 170 -75 143 -67 297
24 483 41 82 61 109 148 196 90 89 113 107 206 153 152 75 283 97 412 70z"/>
</g>
</svg>
