<svg id="object" xmlns="http://www.w3.org/2000/svg" xmlns:xlink="http://www.w3.org/1999/xlink" viewBox="0 0 2340 1560"><defs><style>.cls-1,.cls-19{fill:none;}.cls-2{fill:#5bc0be;}.cls-3{clip-path:url(#clip-path);}.cls-4{fill:#ffe3ab;}.cls-22,.cls-5,.cls-7{fill:#fff;}.cls-21,.cls-5{opacity:0.2;}.cls-6{fill:#253345;}.cls-7{opacity:0.3;}.cls-8{fill:#3a506b;}.cls-9{fill:#8b98ab;}.cls-10{fill:#476285;}.cls-11{fill:#f0f6ff;}.cls-12{fill:#c9e0ff;}.cls-13{fill:#4a6687;}.cls-14{fill:#ff9f1c;}.cls-15{fill:#ffc857;}.cls-16{fill:#ffbc33;}.cls-17{fill:#c4fffe;}.cls-18{fill:#b0e6e5;}.cls-19{stroke:#6388b5;stroke-miterlimit:10;stroke-width:10px;}.cls-20{fill:#6388b5;}</style><clipPath id="clip-path"><rect class="cls-1" width="2340" height="1560"/></clipPath></defs><rect class="cls-2" width="2340" height="1560"/><g class="cls-3"><path class="cls-4" d="M421.59,117.69V69h3.91V57.53H390.39V69h3.91V97.05L339.62,55.67l-124,93.82v33.93l32.76-24.79V307.9h38.67V217h48.65V307.9h95.13V158.63l32.77,24.79V149.49Zm-53,106.63h15v15.19h-15Zm-46.3-79.67h15v15.19h-15ZM357,179.71H322.24V164.53h15v15.18H342V164.53h15Zm0-19.87H342V144.65h15Zm46.31,99.54H368.54V244.2h15v15.18h4.69V244.2h15Zm0-19.87h-15V224.32h15Z"/><path class="cls-4" d="M327.94,262.46a2.85,2.85,0,1,0-2.85,2.85A2.85,2.85,0,0,0,327.94,262.46Z"/><path class="cls-4" d="M876.31,117.69V69h3.91V57.53H845.11V69H849V97.05L794.34,55.67l-124,93.82v33.93l32.76-24.79V307.9h38.67V217h48.65V307.9h95.14V158.63l32.76,24.79V149.49Zm-53,106.63h15v15.19h-15ZM777,144.65h15v15.19H777Zm34.76,35.06H777V164.53h15v15.18h4.7V164.53h15Zm0-19.87h-15V144.65h15ZM858,259.38H823.26V244.2h15v15.18H843V244.2h15Zm0-19.87H843V224.32h15Z"/><path class="cls-4" d="M782.66,262.46a2.85,2.85,0,1,0-2.85,2.85A2.85,2.85,0,0,0,782.66,262.46Z"/><path class="cls-4" d="M1331,117.69V69h3.91V57.53h-35.11V69h3.92V97.05l-54.69-41.38-124,93.82v33.93l32.76-24.79V307.9h38.67V217h48.65V307.9h95.14V158.63l32.76,24.79V149.49Zm-53,106.63h15v15.19h-15Zm-46.3-79.67h15v15.19h-15Zm34.76,35.06h-34.76V164.53h15v15.18h4.7V164.53h15Zm0-19.87h-15V144.65h15Zm46.31,99.54H1278V244.2h15v15.18h4.69V244.2h15Zm0-19.87h-15V224.32h15Z"/><path class="cls-4" d="M1237.38,262.46a2.85,2.85,0,1,0-2.85,2.85A2.85,2.85,0,0,0,1237.38,262.46Z"/><path class="cls-4" d="M1785.75,117.69V69h3.91V57.53h-35.11V69h3.92V97.05l-54.69-41.38-124,93.82v33.93l32.76-24.79V307.9h38.67V217h48.65V307.9H1795V158.63l32.76,24.79V149.49Zm-53,106.63h15v15.19h-15Zm-46.3-79.67h15v15.19h-15Zm34.76,35.06H1686.4V164.53h15v15.18h4.7V164.53h15Zm0-19.87h-15V144.65h15Zm46.31,99.54H1732.7V244.2h15v15.18h4.69V244.2h15Zm0-19.87h-15V224.32h15Z"/><path class="cls-4" d="M1692.1,262.46a2.85,2.85,0,1,0-2.85,2.85A2.85,2.85,0,0,0,1692.1,262.46Z"/><path class="cls-4" d="M2240.47,117.69V69h3.91V57.53h-35.11V69h3.92V97.05L2158.5,55.67l-124,93.82v33.93l32.76-24.79V307.9h38.67V217h48.65V307.9h95.14V158.63l32.76,24.79V149.49Zm-53,106.63h15v15.19h-15Zm-46.3-79.67h15v15.19h-15Zm34.76,35.06h-34.76V164.53h15v15.18h4.7V164.53h15Zm0-19.87h-15V144.65h15Zm46.31,99.54h-34.77V244.2h15v15.18h4.69V244.2h15Zm0-19.87h-15V224.32h15Z"/><path class="cls-4" d="M2146.82,262.46a2.85,2.85,0,1,0-2.85,2.85A2.85,2.85,0,0,0,2146.82,262.46Z"/><path class="cls-4" d="M669.57,514.2V465.48h3.91V454H638.37v11.44h3.92v28.08L587.6,452.19,463.61,546v33.94l32.77-24.79V704.41H535V613.53h48.65v90.88h95.14V555.15l32.76,24.79V546ZM616.52,620.84h15V636h-15Zm-46.3-79.67h15v15.18h-15ZM605,576.23H570.22V561h15v15.19H590V561h15Zm0-19.88H590V541.17h15Zm46.3,99.55H616.52V640.71h15V655.9h4.69V640.71h15Zm0-19.88h-15V620.84h15Z"/><path class="cls-4" d="M575.92,659a2.85,2.85,0,1,0-2.85,2.85A2.86,2.86,0,0,0,575.92,659Z"/><path class="cls-4" d="M1579,514.2V465.48h3.91V454h-35.1v11.44h3.91v28.08L1497,452.19l-124,93.81v33.94l32.77-24.79V704.41h38.66V613.53h48.65v90.88h95.14V555.15L1621,579.94V546Zm-53,106.64h15V636h-15Zm-46.31-79.67h15v15.18h-15Zm34.77,35.06h-34.77V561h15v15.19h4.69V561h15Zm0-19.88h-15V541.17h15Zm46.3,99.55H1526V640.71h15V655.9h4.7V640.71h15Zm0-19.88h-15V620.84h15Z"/><path class="cls-4" d="M1485.36,659a2.85,2.85,0,1,0-2.85,2.85A2.85,2.85,0,0,0,1485.36,659Z"/><path class="cls-4" d="M2038.93,514.2V465.48h3.92V454h-35.11v11.44h3.91v28.08L1957,452.19,1833,546v33.94l32.77-24.79V704.41h38.66V613.53h48.65v90.88h95.14V555.15L2081,579.94V546Zm-53,106.64h15V636h-15Zm-46.31-79.67h15v15.18h-15Zm34.77,35.06h-34.77V561h15v15.19h4.69V561h15Zm0-19.88h-15V541.17h15Zm46.3,99.55h-34.76V640.71h15V655.9h4.7V640.71h15Zm0-19.88h-15V620.84h15Z"/><path class="cls-4" d="M1945.28,659a2.85,2.85,0,1,0-2.85,2.85A2.85,2.85,0,0,0,1945.28,659Z"/><path class="cls-4" d="M2488.45,514.2V465.48h3.92V454h-35.11v11.44h3.91v28.08l-54.68-41.37-124,93.81v33.94l32.77-24.79V704.41h38.66V613.53h48.65v90.88h95.14V555.15l32.77,24.79V546Zm-53,106.64h15V636h-15Zm-46.31-79.67h15v15.18h-15Zm34.77,35.06H2389.1V561h15v15.19h4.69V561h15Zm0-19.88h-15V541.17h15Zm46.3,99.55h-34.76V640.71h15V655.9h4.7V640.71h15Zm0-19.88h-15V620.84h15Z"/><path class="cls-4" d="M421.59,910.72V862h3.91V850.56H390.39V862h3.91v28.08L339.62,848.7l-124,93.81v33.94l32.76-24.79v149.26h38.67V1010h48.65v90.88h95.13V951.66l32.77,24.79V942.51Zm-53,106.63h15v15.18h-15Zm-46.3-79.67h15v15.18h-15ZM357,972.74H322.24V957.56h15v15.18H342V957.56h15Zm0-19.88H342V937.68h15Zm46.31,99.55H368.54v-15.18h15v15.18h4.69v-15.18h15Zm0-19.88h-15v-15.18h15Z"/><path class="cls-4" d="M327.94,1055.48a2.85,2.85,0,1,0-2.85,2.85A2.86,2.86,0,0,0,327.94,1055.48Z"/><path class="cls-4" d="M1785.75,910.72V862h3.91V850.56h-35.11V862h3.92v28.08l-54.69-41.37-124,93.81v33.94l32.76-24.79v149.26h38.67V1010h48.65v90.88H1795V951.66l32.76,24.79V942.51Zm-53,106.63h15v15.18h-15Zm-46.3-79.67h15v15.18h-15Zm34.76,35.06H1686.4V957.56h15v15.18h4.7V957.56h15Zm0-19.88h-15V937.68h15Zm46.31,99.55H1732.7v-15.18h15v15.18h4.69v-15.18h15Zm0-19.88h-15v-15.18h15Z"/><path class="cls-4" d="M1692.1,1055.48a2.85,2.85,0,1,0-2.85,2.85A2.86,2.86,0,0,0,1692.1,1055.48Z"/><path class="cls-4" d="M2240.47,910.72V862h3.91V850.56h-35.11V862h3.92v28.08L2158.5,848.7l-124,93.81v33.94l32.76-24.79v149.26h38.67V1010h48.65v90.88h95.14V951.66l32.76,24.79V942.51Zm-53,106.63h15v15.18h-15Zm-46.3-79.67h15v15.18h-15Zm34.76,35.06h-34.76V957.56h15v15.18h4.7V957.56h15Zm0-19.88h-15V937.68h15Zm46.31,99.55h-34.77v-15.18h15v15.18h4.69v-15.18h15Zm0-19.88h-15v-15.18h15Z"/><path class="cls-4" d="M2146.82,1055.48a2.85,2.85,0,1,0-2.85,2.85A2.86,2.86,0,0,0,2146.82,1055.48Z"/><path class="cls-4" d="M669.57,1307.23v-48.72h3.91v-11.44H638.37v11.44h3.92v28.08l-54.69-41.38-124,93.81V1373l32.77-24.79v149.27H535v-90.88h48.65v90.88h95.14V1348.17L711.59,1373V1339Zm-53.05,106.63h15v15.19h-15Zm-46.3-79.67h15v15.19h-15ZM605,1369.25H570.22v-15.18h15v15.18H590v-15.18h15Zm0-19.87H590v-15.19h15Zm46.3,99.54H616.52v-15.18h15v15.18h4.69v-15.18h15Zm0-19.87h-15v-15.19h15Z"/><path class="cls-4" d="M575.92,1452a2.85,2.85,0,1,0-2.85,2.85A2.85,2.85,0,0,0,575.92,1452Z"/><path class="cls-4" d="M107.7,514.2V465.48h3.91V454H76.51v11.44h3.91v28.08L25.73,452.19-98.26,546v33.94l32.77-24.79V704.41h38.66V613.53H21.82v90.88H117V555.15l32.76,24.79V546Zm-53,106.64h15V636h-15ZM8.35,541.17h15v15.18h-15Zm34.77,35.06H8.35V561h15v15.19h4.69V561h15Zm0-19.88h-15V541.17h15Zm46.3,99.55H54.65V640.71h15V655.9h4.69V640.71h15Zm0-19.88h-15V620.84h15Z"/><path class="cls-4" d="M14.05,659a2.85,2.85,0,1,0-2.85,2.85A2.86,2.86,0,0,0,14.05,659Z"/><path class="cls-4" d="M107.7,1307.23v-48.72h3.91v-11.44H76.51v11.44h3.91v28.08l-54.69-41.38-124,93.81V1373l32.77-24.79v149.27h38.66v-90.88H21.82v90.88H117V1348.17L149.72,1373V1339Zm-53,106.63h15v15.19h-15Zm-46.3-79.67h15v15.19h-15Zm34.77,35.06H8.35v-15.18h15v15.18h4.69v-15.18h15Zm0-19.87h-15v-15.19h15Zm46.3,99.54H54.65v-15.18h15v15.18h4.69v-15.18h15Zm0-19.87h-15v-15.19h15Z"/><path class="cls-4" d="M14.05,1452a2.85,2.85,0,1,0-2.85,2.85A2.85,2.85,0,0,0,14.05,1452Z"/><path class="cls-4" d="M1027,1353.07a435.74,435.74,0,0,1-108.64-13.68V1373l32.77-24.79v149.26h38.66v-90.87h48.65v90.87h95.14V1348.17l32.77,24.79V1339l-8.11-6.13A434.43,434.43,0,0,1,1027,1353.07Zm44.27,60.79h15v15.19h-15Zm-11.53-44.61h-34.77v-15.18h15v15.18h4.69v-15.18h15Zm46.3,79.67h-34.77v-15.18h15v15.18H1091v-15.18h15Zm0-19.87h-15v-15.19h15Z"/><path class="cls-4" d="M1579,1307.23v-48.72h3.91v-11.44h-35.1v11.44h3.91v28.08L1497,1245.21l-124,93.81V1373l32.77-24.79v149.27h38.66v-90.88h48.65v90.88h95.14V1348.17L1621,1373V1339Zm-53,106.63h15v15.19h-15Zm-46.31-79.67h15v15.19h-15Zm34.77,35.06h-34.77v-15.18h15v15.18h4.69v-15.18h15Zm0-19.87h-15v-15.19h15Zm46.3,99.54H1526v-15.18h15v15.18h4.7v-15.18h15Zm0-19.87h-15v-15.19h15Z"/><path class="cls-4" d="M1485.36,1452a2.85,2.85,0,1,0-2.85,2.85A2.84,2.84,0,0,0,1485.36,1452Z"/><path class="cls-4" d="M2036.33,1307.23v-48.72h3.92v-11.44h-35.11v11.44h3.91v28.08l-54.69-41.38-124,93.81V1373l32.77-24.79v149.27h38.66v-90.88h48.65v90.88h95.14V1348.17l32.77,24.79V1339Zm-53,106.63h15v15.19h-15ZM1937,1334.19h15v15.19h-15Zm34.77,35.06H1937v-15.18h15v15.18h4.69v-15.18h15Zm0-19.87h-15v-15.19h15Zm46.3,99.54h-34.76v-15.18h15v15.18h4.7v-15.18h15Zm0-19.87h-15v-15.19h15Z"/><path class="cls-4" d="M1942.68,1452a2.85,2.85,0,1,0-2.85,2.85A2.84,2.84,0,0,0,1942.68,1452Z"/><path class="cls-4" d="M2488.45,1307.23v-48.72h3.92v-11.44h-35.11v11.44h3.91v28.08l-54.68-41.38-124,93.81V1373l32.77-24.79v149.27h38.66v-90.88h48.65v90.88h95.14V1348.17l32.77,24.79V1339Zm-53,106.63h15v15.19h-15Zm-46.31-79.67h15v15.19h-15Zm34.77,35.06H2389.1v-15.18h15v15.18h4.69v-15.18h15Zm0-19.87h-15v-15.19h15Zm46.3,99.54h-34.76v-15.18h15v15.18h4.7v-15.18h15Zm0-19.87h-15v-15.19h15Z"/></g><circle class="cls-5" cx="1026.97" cy="918.27" r="434.8"/><path class="cls-6" d="M719.52,1225.72a434.71,434.71,0,0,1-75.72-101.78l-98.72,53.12a11.83,11.83,0,0,0-4.72,16.22A562.48,562.48,0,0,0,752,1404.88a11.83,11.83,0,0,0,16.22-4.72l53.12-98.71A435,435,0,0,1,719.52,1225.72Z"/><circle class="cls-7" cx="1026.97" cy="918.27" r="434.8"/><path class="cls-8" d="M1395,550.27C1191.73,347,862.21,347,659,550.27s-203.25,532.76,0,736,532.76,203.24,736,0S1598.22,753.51,1395,550.27Zm-60.56,675.45c-169.8,169.8-445.1,169.8-614.9,0s-169.8-445.1,0-614.9,445.1-169.8,614.9,0S1504.22,1055.92,1334.42,1225.72Z"/><rect class="cls-9" x="518.44" y="1331.16" width="111.21" height="80.06" transform="translate(1137.72 -4.3) rotate(45)"/><path class="cls-6" d="M548.38,1271.88H700a0,0,0,0,1,0,0v92.63a5.7,5.7,0,0,1-5.7,5.7H554.08a5.7,5.7,0,0,1-5.7-5.7v-92.63a0,0,0,0,1,0,0Z" transform="translate(1116.94 -54.45) rotate(45)"/><path class="cls-10" d="M492.47,1560H278.27l205.7-206a11.55,11.55,0,0,1,16.33,0l90.89,90.9a11.55,11.55,0,0,1,0,16.33Z"/><polygon class="cls-11" points="1262.88 1228.28 791.06 1228.28 791.06 842.29 1026.97 663.8 1262.88 842.29 1262.88 1228.28"/><rect class="cls-12" x="791.06" y="1203.86" width="471.82" height="24.42"/><polygon class="cls-13" points="1347.62 906.4 1026.97 663.8 706.33 906.4 706.33 818.63 1026.97 576.03 1347.62 818.63 1347.62 906.4"/><polygon class="cls-8" points="1347.62 906.4 1026.97 663.8 706.33 906.4 706.33 890.21 1026.97 647.61 1347.62 890.21 1347.62 906.4"/><rect class="cls-14" x="880.93" y="983.16" width="146.04" height="245.12"/><rect class="cls-15" x="836.45" y="1047.87" width="235.01" height="125.81" transform="translate(2064.73 156.82) rotate(90)"/><rect class="cls-16" x="942.41" y="1153.83" width="23.09" height="125.81" transform="translate(2170.69 262.78) rotate(90)"/><rect class="cls-8" x="1158.27" y="580.83" width="90.79" height="29.58"/><rect class="cls-17" x="982.02" y="791.34" width="89.91" height="105.46"/><rect class="cls-18" x="982.02" y="791.34" width="89.91" height="21.01"/><rect class="cls-19" x="982.02" y="791.34" width="89.91" height="105.46"/><rect class="cls-13" x="971.49" y="776.55" width="110.97" height="29.58"/><rect class="cls-8" x="971.49" y="797.48" width="110.97" height="8.66"/><rect class="cls-13" x="971.49" y="900.04" width="110.97" height="8.66"/><polygon class="cls-20" points="1033.04 806.13 1020.9 806.13 1020.9 845.4 981.64 845.4 981.64 857.54 1020.9 857.54 1020.9 896.8 1033.04 896.8 1033.04 857.54 1072.31 857.54 1072.31 845.4 1033.04 845.4 1033.04 806.13"/><polygon class="cls-11" points="1238.94 736.41 1168.39 683.03 1168.39 610.41 1238.94 610.41 1238.94 736.41"/><polygon class="cls-12" points="791.06 896.8 1026.97 699.37 1262.88 863.47 1262.88 842.29 1026.97 663.8 791.06 842.29 791.06 896.8"/><circle class="cls-14" cx="989.39" cy="1110.78" r="7.37"/><rect class="cls-17" x="1101.73" y="997.37" width="89.91" height="105.46"/><rect class="cls-18" x="1101.73" y="997.37" width="89.91" height="21.01"/><rect class="cls-19" x="1101.73" y="997.37" width="89.91" height="105.46"/><rect class="cls-13" x="1091.2" y="982.58" width="110.97" height="29.58"/><rect class="cls-8" x="1091.2" y="1003.5" width="110.97" height="8.66"/><rect class="cls-13" x="1091.2" y="1106.07" width="110.97" height="8.66"/><polygon class="cls-20" points="1152.75 1012.16 1140.62 1012.16 1140.62 1051.42 1101.35 1051.42 1101.35 1063.56 1140.62 1063.56 1140.62 1102.83 1152.75 1102.83 1152.75 1063.56 1192.02 1063.56 1192.02 1051.42 1152.75 1051.42 1152.75 1012.16"/><rect class="cls-12" x="1168.39" y="610.41" width="70.55" height="18.6"/><circle class="cls-5" cx="1122.21" cy="600.45" r="52.73"/><g class="cls-21"><path class="cls-22" d="M1027,1305.81a387.58,387.58,0,0,1-352.16-225.59,52.3,52.3,0,1,1,95-43.75A283,283,0,0,0,1027,1201.21a52.3,52.3,0,0,1,0,104.6Z"/></g><g class="cls-21"><path class="cls-22" d="M1327.83,1118.54a52.33,52.33,0,0,1-46.87-75.43,280,280,0,0,0,29-124.84c0-77.84-31-150.39-87.17-204.28a52.3,52.3,0,1,1,72.38-75.5,387.77,387.77,0,0,1,79.67,450.85A52.3,52.3,0,0,1,1327.83,1118.54Z"/></g></svg>